<svg id="Лого" xmlns="http://www.w3.org/2000/svg" width="84" height="100" viewBox="0 0 84 100">
  <metadata><?xpacket begin="﻿" id="W5M0MpCehiHzreSzNTczkc9d"?>
<x:xmpmeta xmlns:x="adobe:ns:meta/" x:xmptk="Adobe XMP Core 5.6-c142 79.160924, 2017/07/13-01:06:39        ">
   <rdf:RDF xmlns:rdf="http://www.w3.org/1999/02/22-rdf-syntax-ns#">
      <rdf:Description rdf:about=""
            xmlns:xmp="http://ns.adobe.com/xap/1.0/">
         <xmp:CreatorTool>Adobe Photoshop CC 2018 (Windows)</xmp:CreatorTool>
      </rdf:Description>
   </rdf:RDF>
</x:xmpmeta>
                                                                                                    
                                                                                                    
                                                                                                    
                                                                                                    
                                                                                                    
                                                                                                    
                                                                                                    
                                                                                                    
                                                                                                    
                                                                                                    
                                                                                                    
                                                                                                    
                                                                                                    
                                                                                                    
                                                                                                    
                                                                                                    
                                                                                                    
                                                                                                    
                                                                                                    
                                                                                                    
                           
<?xpacket end="w"?></metadata>
<defs>
    <style>
      .cls-1 {
        fill: #031216;
      }

      .cls-1, .cls-2 {
        fill-rule: evenodd;
      }

      .cls-2 {
        fill: maroon;
      }
    </style>
  </defs>
  <path id="Фигура_1" data-name="Фигура 1" class="cls-1" d="M541.735,114.724h-4.111l-2.48-9.065-4.814,9.283h-1.517L524,105.659l-2.578,9.065h-4.1L522.139,97.9h2.252l5.172,11.326L534.621,97.9h2.236Zm6.853-14.172v3.936h7.9v2.536h-7.9v5.038h10.834v2.651H544.346V97.9H559.6v2.651H548.588Zm28.325,14.161-6.657-7.161-2.66,2.559v4.6h-4.242V97.9H567.6v8.044l8.126-8.044h4.829l-7.489,7.344,8.925,9.467h-5.074ZM600.359,98.8l-1.746,2.468a8.1,8.1,0,0,0-4.569-1,6.931,6.931,0,0,0-4.894,1.762,5.8,5.8,0,0,0-1.909,4.458,5.455,5.455,0,0,0,1.77,4.28,6.82,6.82,0,0,0,4.724,1.584,7.673,7.673,0,0,0,5.286-1.7L601,113.06Q598.4,115,593.392,115t-7.783-2.318a8.209,8.209,0,0,1,.3-12.56,12.056,12.056,0,0,1,7.873-2.507A15.356,15.356,0,0,1,600.359,98.8Zm-41.567-4.131L545.316,62.448,528.323,94.665H517L546.362,39l12.473,29.82L571.387,39.09,601,94.665H589.652L572.435,62.354Z" transform="translate(-517 -15)"/>
  <path id="Заливка_цветом_1" data-name="Заливка цветом 1" class="cls-2" d="M558.832,54.22l9.322-21.367L558.813,15l-9.257,17.853,9.276,21.367" transform="translate(-517 -15)"/>
</svg>
